<svg width="30" height="30" viewBox="0 0 30 30" fill="none" xmlns="http://www.w3.org/2000/svg">
<rect width="30" height="30" rx="15" fill="white"/>
<path d="M20.6816 10.9848H18.1816V10.1515C18.1816 9.26746 17.8305 8.41961 17.2053 7.79449C16.5802 7.16937 15.7324 6.81818 14.8483 6.81818C13.9643 6.81818 13.1164 7.16937 12.4913 7.79449C11.8662 8.41961 11.515 9.26746 11.515 10.1515V10.9848H9.01497C8.79396 10.9848 8.582 11.0726 8.42572 11.2289C8.26944 11.3852 8.18164 11.5972 8.18164 11.8182V20.9848C8.18164 21.6479 8.44503 22.2838 8.91387 22.7526C9.38271 23.2215 10.0186 23.4848 10.6816 23.4848H19.015C19.678 23.4848 20.3139 23.2215 20.7827 22.7526C21.2516 22.2838 21.515 21.6479 21.515 20.9848V11.8182C21.515 11.5972 21.4272 11.3852 21.2709 11.2289C21.1146 11.0726 20.9027 10.9848 20.6816 10.9848ZM13.1816 10.1515C13.1816 9.70948 13.3572 9.28556 13.6698 8.973C13.9824 8.66044 14.4063 8.48484 14.8483 8.48484C15.2903 8.48484 15.7143 8.66044 16.0268 8.973C16.3394 9.28556 16.515 9.70948 16.515 10.1515V10.9848H13.1816V10.1515ZM19.8483 20.9848C19.8483 21.2059 19.7605 21.4178 19.6042 21.5741C19.448 21.7304 19.236 21.8182 19.015 21.8182H10.6816C10.4606 21.8182 10.2487 21.7304 10.0924 21.5741C9.9361 21.4178 9.84831 21.2059 9.84831 20.9848V12.6515H11.515V13.4848C11.515 13.7059 11.6028 13.9178 11.7591 14.0741C11.9153 14.2304 12.1273 14.3182 12.3483 14.3182C12.5693 14.3182 12.7813 14.2304 12.9376 14.0741C13.0938 13.9178 13.1816 13.7059 13.1816 13.4848V12.6515H16.515V13.4848C16.515 13.7059 16.6028 13.9178 16.7591 14.0741C16.9153 14.2304 17.1273 14.3182 17.3483 14.3182C17.5693 14.3182 17.7813 14.2304 17.9376 14.0741C18.0938 13.9178 18.1816 13.7059 18.1816 13.4848V12.6515H19.8483V20.9848Z" fill="black"/>
</svg>
